<svg xmlns="http://www.w3.org/2000/svg" viewBox="0 0 400 400">
  <defs>
    <linearGradient id="stem" x1="0%" y1="0%" x2="100%" y2="100%">
      <stop offset="0%" stop-color="#22c55e"/>
      <stop offset="100%" stop-color="#16a34a"/>
    </linearGradient>
  </defs>
  <!-- Vase -->
  <path d="M160 380 L170 280 Q200 270 230 280 L240 380 Z" fill="#64748b"/>
  <ellipse cx="200" cy="280" rx="35" ry="12" fill="#94a3b8"/>
  <!-- Stems -->
  <path d="M200 280 Q180 200 160 140" stroke="url(#stem)" stroke-width="4" fill="none"/>
  <path d="M200 280 Q200 200 200 120" stroke="url(#stem)" stroke-width="4" fill="none"/>
  <path d="M200 280 Q220 200 240 140" stroke="url(#stem)" stroke-width="4" fill="none"/>
  <path d="M200 280 Q160 220 140 180" stroke="url(#stem)" stroke-width="4" fill="none"/>
  <path d="M200 280 Q240 220 260 180" stroke="url(#stem)" stroke-width="4" fill="none"/>
  <!-- Rose 1 (Red) -->
  <circle cx="160" cy="130" r="30" fill="#f43f5e"/>
  <circle cx="160" cy="130" r="20" fill="#e11d48"/>
  <circle cx="160" cy="130" r="10" fill="#be123c"/>
  <!-- Rose 2 (Pink) -->
  <circle cx="200" cy="110" r="35" fill="#ec4899"/>
  <circle cx="200" cy="110" r="25" fill="#db2777"/>
  <circle cx="200" cy="110" r="12" fill="#be185d"/>
  <!-- Rose 3 (Yellow) -->
  <circle cx="240" cy="130" r="30" fill="#fbbf24"/>
  <circle cx="240" cy="130" r="20" fill="#f59e0b"/>
  <circle cx="240" cy="130" r="10" fill="#d97706"/>
  <!-- Flower 4 (Purple) -->
  <circle cx="140" cy="170" r="25" fill="#a855f7"/>
  <circle cx="140" cy="170" r="15" fill="#9333ea"/>
  <circle cx="140" cy="170" r="8" fill="#fbbf24"/>
  <!-- Flower 5 (Orange) -->
  <circle cx="260" cy="170" r="25" fill="#fb923c"/>
  <circle cx="260" cy="170" r="15" fill="#f97316"/>
  <circle cx="260" cy="170" r="8" fill="#fbbf24"/>
  <!-- Leaves -->
  <ellipse cx="175" cy="200" rx="20" ry="10" fill="#22c55e" transform="rotate(-30 175 200)"/>
  <ellipse cx="225" cy="200" rx="20" ry="10" fill="#22c55e" transform="rotate(30 225 200)"/>
  <ellipse cx="185" cy="240" rx="15" ry="8" fill="#16a34a" transform="rotate(-20 185 240)"/>
  <ellipse cx="215" cy="240" rx="15" ry="8" fill="#16a34a" transform="rotate(20 215 240)"/>
</svg>