<svg xmlns="http://www.w3.org/2000/svg" viewBox="0 0 400 400">
  <defs>
    <linearGradient id="leafy1" x1="0%" y1="0%" x2="100%" y2="100%">
      <stop offset="0%" stop-color="#22c55e"/>
      <stop offset="100%" stop-color="#16a34a"/>
    </linearGradient>
    <linearGradient id="leafy2" x1="0%" y1="0%" x2="100%" y2="100%">
      <stop offset="0%" stop-color="#4ade80"/>
      <stop offset="100%" stop-color="#22c55e"/>
    </linearGradient>
  </defs>
  <!-- Lettuce head -->
  <ellipse cx="200" cy="250" rx="100" ry="70" fill="url(#leafy2)"/>
  <ellipse cx="200" cy="230" rx="85" ry="55" fill="url(#leafy1)"/>
  <ellipse cx="200" cy="215" rx="70" ry="45" fill="url(#leafy2)"/>
  <ellipse cx="200" cy="205" rx="55" ry="35" fill="url(#leafy1)"/>
  <ellipse cx="200" cy="195" rx="40" ry="25" fill="#86efac"/>
  <!-- Spinach leaves -->
  <ellipse cx="100" cy="200" rx="40" ry="60" fill="url(#leafy1)" transform="rotate(-30 100 200)"/>
  <path d="M100 160 L100 240" stroke="#15803d" stroke-width="2"/>
  <ellipse cx="80" cy="280" rx="35" ry="50" fill="url(#leafy2)" transform="rotate(-20 80 280)"/>
  <!-- Kale -->
  <path d="M300 150 Q280 180 300 210 Q320 180 300 150" fill="url(#leafy1)"/>
  <path d="M300 150 Q330 170 340 200 Q310 190 300 210" fill="url(#leafy2)"/>
  <path d="M300 150 Q270 170 260 200 Q290 190 300 210" fill="url(#leafy2)"/>
  <path d="M300 210 L300 280" stroke="#16a34a" stroke-width="4"/>
  <!-- Chinese cabbage -->
  <ellipse cx="320" cy="300" rx="50" ry="70" fill="#f0fdf4"/>
  <ellipse cx="320" cy="290" rx="40" ry="55" fill="#dcfce7"/>
  <path d="M290 250 Q320 280 350 250" fill="none" stroke="#22c55e" stroke-width="3"/>
  <path d="M295 270 Q320 295 345 270" fill="none" stroke="#22c55e" stroke-width="2"/>
</svg>